<svg id="Layer_1" data-name="Layer 1" xmlns="http://www.w3.org/2000/svg" viewBox="0 0 34 35.94"><defs><style>.cls-1{fill:#f34334;}.cls-2{fill:#4870f4;}</style></defs><g id="Group-16"><path class="cls-1" d="M7106.33-7207.23a1,1,0,0,0-1.35.44h0L7091.9-7181a1,1,0,0,0-.11.45,1,1,0,0,0,1,1h4.46l11.67-23-2.16-4.23A1,1,0,0,0,7106.33-7207.23Z" transform="translate(-7082.34 7215.54)"/><ellipse class="cls-2" cx="27.73" cy="29.68" rx="6.28" ry="6.18"/><path class="cls-1" d="M7101-7215.43a1,1,0,0,0-1.34.44h0l-17.2,33.86a1,1,0,0,0-.11.45,1,1,0,0,0,1,1h4.27l15.91-31.19-2.09-4.12A1,1,0,0,0,7101-7215.43Z" transform="translate(-7082.34 7215.54)"/></g></svg>