<?xml version="1.0" encoding="UTF-8"?>
<svg width="523px" height="257px" viewBox="0 0 523 257" version="1.1" xmlns="http://www.w3.org/2000/svg" xmlns:xlink="http://www.w3.org/1999/xlink">
    <title>Group 17</title>
    <g id="Page-1" stroke="none" stroke-width="1" fill="none" fill-rule="evenodd">
        <g id="Group-17" transform="translate(0.000000, 2.000000)">
            <g id="Group-16">
                <path d="M263.158359,0.211583731 C263.545414,0.405111133 263.859259,0.718956117 264.052786,1.10601092 L316.316718,105.633875 C316.810697,106.621832 316.410248,107.823178 315.422291,108.317157 C315.14458,108.456012 314.838354,108.528302 314.527864,108.528302 L210,108.528302 C208.895431,108.528302 208,107.632872 208,106.528302 C208,106.217812 208.07229,105.911586 208.211146,105.633875 L260.475078,1.10601092 C260.969056,0.118053927 262.170402,-0.282394766 263.158359,0.211583731 Z M275.560414,37.7049746 C275.069626,37.4517039 274.466448,37.6442494 274.213177,38.1350369 L274.213177,38.1350369 L242.779781,99.0466209 C242.70661,99.1884109 242.66843,99.3456514 242.66843,99.5052081 C242.66843,100.057493 243.116145,100.505208 243.66843,100.505208 L243.66843,100.505208 L255.71243,100.504415 L281.94443,49.6724152 L275.990476,38.1350369 C275.89525,37.9505084 275.744942,37.8002005 275.560414,37.7049746 Z M284.530784,72.9667899 C276.735171,72.9667899 270.415579,79.0898381 270.415579,86.6430007 C270.415579,94.1961634 276.735171,100.319212 284.530784,100.319212 C292.326397,100.319212 298.645989,94.1961634 298.645989,86.6430007 C298.645989,79.0898381 292.326397,72.9667899 284.530784,72.9667899 Z M263.568135,19.5539076 C263.077348,19.3006369 262.47417,19.4931823 262.220899,19.9839698 L262.220899,19.9839698 L221.516635,98.8606245 C221.443465,99.0024144 221.405285,99.1596549 221.405285,99.3192116 C221.405285,99.8714964 221.853,100.319212 222.405285,100.319212 L222.405285,100.319212 L234.032225,100.319212 L269.821285,31.2683482 L263.998198,19.9839698 C263.902972,19.7994414 263.752664,19.6491334 263.568135,19.5539076 Z" id="Combined-Shape" stroke="#466FF4" stroke-width="3"></path>
                <g id="WhiteStar-Communicat" transform="translate(0.796239, 125.018302)" fill-rule="nonzero">
                    <path d="M34.9663618,55.51 C43.3663618,55.51 49.0363618,52.36 52.3263618,47.39 C55.6163618,52.36 61.2863618,55.51 69.7563618,55.51 L76.7563618,55.51 C91.4563618,55.51 98.7363618,45.92 98.7363618,33.67 L98.7363618,11.9 C98.7363618,8.47 96.8463618,6.51 93.4163618,6.51 C89.9163618,6.51 88.0263618,8.47 88.0263618,11.9 L88.0263618,33.18 C88.0263618,40.39 83.7563618,45.99 75.0063618,45.99 L70.7363618,45.99 C61.9863618,45.99 57.7163618,40.39 57.7163618,33.18 L57.7163618,11.9 C57.7163618,8.47 55.8263618,6.51 52.3263618,6.51 C48.8963618,6.51 47.0063618,8.47 47.0063618,11.9 L47.0063618,33.18 C47.0063618,40.39 42.6663618,45.99 33.9863618,45.99 L29.6463618,45.99 C20.9663618,45.99 16.6963618,40.39 16.6963618,33.18 L16.6963618,11.9 C16.6963618,8.47 14.7363618,6.51 11.3063618,6.51 C7.8763618,6.51 5.9163618,8.47 5.9163618,11.9 L5.9163618,33.67 C5.9163618,45.92 13.1963618,55.51 27.9663618,55.51 L34.9663618,55.51 Z M157.887769,55.51 C161.107769,55.51 162.927769,53.76 162.927769,50.54 L162.927769,35.7 C162.927769,24.64 156.277769,15.89 142.907769,15.89 L134.017769,15.89 C126.737769,15.89 121.837769,18.9 119.457769,23.45 L119.457769,10.15 C119.457769,6.86 117.777769,5.11 114.487769,5.11 C111.267769,5.11 109.447769,6.86 109.447769,10.15 L109.447769,50.54 C109.447769,53.76 111.267769,55.51 114.487769,55.51 C117.777769,55.51 119.457769,53.76 119.457769,50.54 L119.457769,35.7 C119.457769,29.68 123.167769,24.85 130.447769,24.85 L141.927769,24.85 C149.277769,24.85 152.917769,29.61 152.917769,35.7 L152.917769,50.54 C152.917769,53.76 154.667769,55.51 157.887769,55.51 Z M178.329176,11.69 C181.969176,11.69 184.139176,9.59 184.139176,5.88 C184.139176,2.1 181.969176,-9.09494702e-13 178.329176,-9.09494702e-13 C174.549176,-9.09494702e-13 172.449176,2.1 172.449176,5.88 C172.449176,9.59 174.549176,11.69 178.329176,11.69 Z M178.329176,55.51 C181.549176,55.51 183.299176,53.76 183.299176,50.54 L183.299176,20.86 C183.299176,17.64 181.549176,15.89 178.329176,15.89 C175.109176,15.89 173.289176,17.64 173.289176,20.86 L173.289176,50.54 C173.289176,53.76 175.109176,55.51 178.329176,55.51 Z M227.190583,55.51 C230.130583,55.51 231.740583,53.9 231.740583,51.03 C231.740583,48.16 230.130583,46.55 227.190583,46.55 L214.660583,46.55 C207.380583,46.55 203.670583,41.79 203.670583,35.7 L203.670583,24.85 L227.190583,24.85 C230.130583,24.85 231.740583,23.31 231.740583,20.37 C231.740583,17.5 230.130583,15.89 227.190583,15.89 L203.670583,15.89 L203.670583,12.25 C203.670583,8.96 201.990583,7.21 198.700583,7.21 C195.480583,7.21 193.660583,8.96 193.660583,12.25 L193.660583,35.7 C193.660583,46.69 200.310583,55.51 213.680583,55.51 L227.190583,55.51 Z M285.85199,55.51 C288.79199,55.51 290.40199,53.9 290.40199,51.03 C290.40199,48.09 288.79199,46.55 285.85199,46.55 L260.02199,46.55 C254.42199,46.55 250.99199,43.75 249.66199,39.69 L281.72199,39.69 C284.31199,39.69 285.85199,38.29 285.85199,35.7 C285.85199,33.18 284.31199,31.71 281.72199,31.71 L249.66199,31.71 C250.99199,27.65 254.42199,24.85 260.02199,24.85 L285.85199,24.85 C288.79199,24.85 290.40199,23.24 290.40199,20.37 C290.40199,17.5 288.79199,15.89 285.85199,15.89 L259.11199,15.89 C245.74199,15.89 239.09199,24.64 239.09199,35.7 C239.09199,46.69 245.74199,55.51 259.11199,55.51 L285.85199,55.51 Z M347.313397,55.51 C357.183397,55.51 362.083397,49.07 362.083397,40.88 C362.083397,32.69 357.183397,26.25 347.313397,26.25 L314.553397,26.25 C311.123397,26.25 309.373397,24.08 309.373397,21.14 C309.373397,18.2 311.123397,16.03 314.553397,16.03 L355.573397,16.03 C358.723397,16.03 360.403397,14.28 360.403397,11.27 C360.403397,8.19 358.723397,6.51 355.573397,6.51 L313.363397,6.51 C303.493397,6.51 298.593397,12.95 298.593397,21.14 C298.593397,29.33 303.493397,35.77 313.363397,35.77 L346.123397,35.77 C349.553397,35.77 351.303397,37.94 351.303397,40.88 C351.303397,43.82 349.553397,45.99 346.123397,45.99 L303.423397,45.99 C300.273397,45.99 298.593397,47.74 298.593397,50.75 C298.593397,53.83 300.273397,55.51 303.423397,55.51 L347.313397,55.51 Z M404.924804,55.51 C407.864804,55.51 409.474804,53.9 409.474804,51.03 C409.474804,48.16 407.864804,46.55 404.924804,46.55 L392.394804,46.55 C385.114804,46.55 381.404804,41.79 381.404804,35.7 L381.404804,24.85 L404.924804,24.85 C407.864804,24.85 409.474804,23.31 409.474804,20.37 C409.474804,17.5 407.864804,15.89 404.924804,15.89 L381.404804,15.89 L381.404804,12.25 C381.404804,8.96 379.724804,7.21 376.434804,7.21 C373.214804,7.21 371.394804,8.96 371.394804,12.25 L371.394804,35.7 C371.394804,46.69 378.044804,55.51 391.414804,55.51 L404.924804,55.51 Z M452.456211,55.51 C463.866211,55.51 469.536211,48.02 469.536211,38.64 L469.536211,35.7 C469.536211,24.64 462.886211,15.89 449.516211,15.89 L423.336211,15.89 C420.466211,15.89 418.856211,17.5 418.856211,20.37 C418.856211,23.24 420.466211,24.85 423.336211,24.85 L448.606211,24.85 C454.206211,24.85 457.636211,27.65 458.896211,31.71 L429.496211,31.71 C421.516211,31.71 417.456211,37.03 417.456211,43.61 C417.456211,50.19 421.516211,55.51 429.496211,55.51 L452.456211,55.51 Z M451.056211,46.55 L430.896211,46.55 C428.656211,46.55 427.466211,44.94 427.466211,43.12 C427.466211,41.16 428.656211,39.69 430.896211,39.69 L459.456211,39.69 C458.966211,43.82 456.446211,46.55 451.056211,46.55 Z M483.887618,55.51 C487.177618,55.51 488.857618,53.76 488.857618,50.54 L488.857618,35.7 C488.857618,29.61 492.567618,24.85 499.847618,24.85 L513.847618,24.85 C516.787618,24.85 518.397618,23.24 518.397618,20.37 C518.397618,17.5 516.787618,15.89 513.847618,15.89 L498.867618,15.89 C485.497618,15.89 478.847618,24.64 478.847618,35.7 L478.847618,50.54 C478.847618,53.76 480.667618,55.51 483.887618,55.51 Z" id="WhiteStar" fill="#1A1A1A"></path>
                    <path d="M30.451,107.51 C32.116,107.51 33.004,106.585 33.004,104.994 C33.004,103.366 32.116,102.478 30.451,102.478 L13.727,102.478 C8.362,102.478 5.698,99 5.698,94.56 C5.698,90.12 8.362,86.642 13.727,86.642 L30.451,86.642 C32.116,86.642 33.004,85.717 33.004,84.126 C33.004,82.498 32.116,81.61 30.451,81.61 L13.098,81.61 C4.329,81.61 -4.54747351e-13,87.308 -4.54747351e-13,94.56 C-4.54747351e-13,101.812 4.329,107.51 13.098,107.51 L30.451,107.51 Z M56.0187437,107.51 C63.0487437,107.51 66.5637437,102.848 66.5637437,97.039 C66.5637437,91.193 63.0487437,86.568 56.0187437,86.568 L47.8417437,86.568 C40.7747437,86.568 37.2597437,91.193 37.2597437,97.039 C37.2597437,102.848 40.7747437,107.51 47.8417437,107.51 L56.0187437,107.51 Z M55.5007437,102.774 L48.3227437,102.774 C44.4747437,102.774 42.5507437,100.221 42.5507437,97.039 C42.5507437,93.82 44.4747437,91.304 48.3227437,91.304 L55.5007437,91.304 C59.3857437,91.304 61.2727437,93.82 61.2727437,97.039 C61.2727437,100.221 59.3857437,102.774 55.5007437,102.774 Z M108.485487,107.51 C110.187487,107.51 111.149487,106.585 111.149487,104.883 L111.149487,95.892 C111.149487,90.712 108.004487,86.568 101.751487,86.568 L98.7174874,86.568 C95.1284874,86.568 92.6864874,87.9 91.2434874,90.009 C89.8004874,87.9 87.3954874,86.568 83.8434874,86.568 L80.8094874,86.568 C74.5564874,86.568 71.4114874,90.712 71.4114874,95.892 L71.4114874,104.883 C71.4114874,106.585 72.3734874,107.51 74.0754874,107.51 C75.8144874,107.51 76.7024874,106.585 76.7024874,104.883 L76.7024874,96.225 C76.7024874,93.487 78.3674874,91.304 81.6604874,91.304 L83.6954874,91.304 C86.9884874,91.304 88.6164874,93.487 88.6164874,96.225 L88.6164874,104.883 C88.6164874,106.585 89.5414874,107.51 91.2804874,107.51 C92.9454874,107.51 93.9074874,106.585 93.9074874,104.883 L93.9074874,96.225 C93.9074874,93.487 95.5724874,91.304 98.8654874,91.304 L100.900487,91.304 C104.193487,91.304 105.858487,93.487 105.858487,96.225 L105.858487,104.883 C105.858487,106.585 106.746487,107.51 108.485487,107.51 Z M153.367231,107.51 C155.069231,107.51 156.031231,106.585 156.031231,104.883 L156.031231,95.892 C156.031231,90.712 152.886231,86.568 146.633231,86.568 L143.599231,86.568 C140.010231,86.568 137.568231,87.9 136.125231,90.009 C134.682231,87.9 132.277231,86.568 128.725231,86.568 L125.691231,86.568 C119.438231,86.568 116.293231,90.712 116.293231,95.892 L116.293231,104.883 C116.293231,106.585 117.255231,107.51 118.957231,107.51 C120.696231,107.51 121.584231,106.585 121.584231,104.883 L121.584231,96.225 C121.584231,93.487 123.249231,91.304 126.542231,91.304 L128.577231,91.304 C131.870231,91.304 133.498231,93.487 133.498231,96.225 L133.498231,104.883 C133.498231,106.585 134.423231,107.51 136.162231,107.51 C137.827231,107.51 138.789231,106.585 138.789231,104.883 L138.789231,96.225 C138.789231,93.487 140.454231,91.304 143.747231,91.304 L145.782231,91.304 C149.075231,91.304 150.740231,93.487 150.740231,96.225 L150.740231,104.883 C150.740231,106.585 151.628231,107.51 153.367231,107.51 Z M178.860975,107.51 C185.927975,107.51 189.442975,102.848 189.442975,97.039 L189.442975,89.195 C189.442975,87.493 188.480975,86.568 186.778975,86.568 C185.076975,86.568 184.151975,87.493 184.151975,89.195 L184.151975,97.039 C184.151975,100.258 182.227975,102.774 178.342975,102.774 L172.274975,102.774 C168.426975,102.774 166.465975,100.258 166.465975,97.039 L166.465975,89.195 C166.465975,87.493 165.540975,86.568 163.838975,86.568 C162.099975,86.568 161.174975,87.493 161.174975,89.195 L161.174975,97.039 C161.174975,102.848 164.689975,107.51 171.756975,107.51 L178.860975,107.51 Z M220.190718,107.51 C221.892718,107.51 222.854718,106.585 222.854718,104.883 L222.854718,97.039 C222.854718,91.193 219.339718,86.568 212.272718,86.568 L205.168718,86.568 C198.101718,86.568 194.586718,91.193 194.586718,97.039 L194.586718,104.883 C194.586718,106.585 195.548718,107.51 197.250718,107.51 C198.989718,107.51 199.877718,106.585 199.877718,104.883 L199.877718,97.039 C199.877718,93.82 201.838718,91.304 205.686718,91.304 L211.754718,91.304 C215.639718,91.304 217.563718,93.82 217.563718,97.039 L217.563718,104.883 C217.563718,106.585 218.488718,107.51 220.190718,107.51 Z M230.995462,84.348 C232.919462,84.348 234.066462,83.238 234.066462,81.277 C234.066462,79.279 232.919462,78.169 230.995462,78.169 C228.997462,78.169 227.887462,79.279 227.887462,81.277 C227.887462,83.238 228.997462,84.348 230.995462,84.348 Z M230.995462,107.51 C232.697462,107.51 233.622462,106.585 233.622462,104.883 L233.622462,89.195 C233.622462,87.493 232.697462,86.568 230.995462,86.568 C229.293462,86.568 228.331462,87.493 228.331462,89.195 L228.331462,104.883 C228.331462,106.585 229.293462,107.51 230.995462,107.51 Z M263.149206,107.51 C264.703206,107.51 265.554206,106.659 265.554206,105.142 C265.554206,103.588 264.703206,102.774 263.149206,102.774 L249.866206,102.774 C246.018206,102.774 244.094206,100.221 244.094206,97.039 C244.094206,93.82 246.018206,91.304 249.866206,91.304 L263.149206,91.304 C264.703206,91.304 265.554206,90.453 265.554206,88.936 C265.554206,87.419 264.703206,86.568 263.149206,86.568 L249.385206,86.568 C242.318206,86.568 238.803206,91.193 238.803206,97.039 C238.803206,102.848 242.318206,107.51 249.385206,107.51 L263.149206,107.51 Z M288.27295,107.51 C294.30395,107.51 297.30095,103.551 297.30095,98.593 L297.30095,97.039 C297.30095,91.193 293.78595,86.568 286.71895,86.568 L272.88095,86.568 C271.36395,86.568 270.51295,87.419 270.51295,88.936 C270.51295,90.453 271.36395,91.304 272.88095,91.304 L286.23795,91.304 C289.19795,91.304 291.01095,92.784 291.67695,94.93 L276.13695,94.93 C271.91895,94.93 269.77295,97.742 269.77295,101.22 C269.77295,104.698 271.91895,107.51 276.13695,107.51 L288.27295,107.51 Z M287.53295,102.774 L276.87695,102.774 C275.69295,102.774 275.06395,101.923 275.06395,100.961 C275.06395,99.925 275.69295,99.148 276.87695,99.148 L291.97295,99.148 C291.71395,101.331 290.38195,102.774 287.53295,102.774 Z M319.945693,107.51 C321.499693,107.51 322.350693,106.659 322.350693,105.142 C322.350693,103.625 321.499693,102.774 319.945693,102.774 L313.322693,102.774 C309.474693,102.774 307.513693,100.258 307.513693,97.039 L307.513693,91.304 L319.945693,91.304 C321.499693,91.304 322.350693,90.49 322.350693,88.936 C322.350693,87.419 321.499693,86.568 319.945693,86.568 L307.513693,86.568 L307.513693,84.644 C307.513693,82.905 306.625693,81.98 304.886693,81.98 C303.184693,81.98 302.222693,82.905 302.222693,84.644 L302.222693,97.039 C302.222693,102.848 305.737693,107.51 312.804693,107.51 L319.945693,107.51 Z M329.825437,84.348 C331.749437,84.348 332.896437,83.238 332.896437,81.277 C332.896437,79.279 331.749437,78.169 329.825437,78.169 C327.827437,78.169 326.717437,79.279 326.717437,81.277 C326.717437,83.238 327.827437,84.348 329.825437,84.348 Z M329.825437,107.51 C331.527437,107.51 332.452437,106.585 332.452437,104.883 L332.452437,89.195 C332.452437,87.493 331.527437,86.568 329.825437,86.568 C328.123437,86.568 327.161437,87.493 327.161437,89.195 L327.161437,104.883 C327.161437,106.585 328.123437,107.51 329.825437,107.51 Z M356.392181,107.51 C363.422181,107.51 366.937181,102.848 366.937181,97.039 C366.937181,91.193 363.422181,86.568 356.392181,86.568 L348.215181,86.568 C341.148181,86.568 337.633181,91.193 337.633181,97.039 C337.633181,102.848 341.148181,107.51 348.215181,107.51 L356.392181,107.51 Z M355.874181,102.774 L348.696181,102.774 C344.848181,102.774 342.924181,100.221 342.924181,97.039 C342.924181,93.82 344.848181,91.304 348.696181,91.304 L355.874181,91.304 C359.759181,91.304 361.646181,93.82 361.646181,97.039 C361.646181,100.221 359.759181,102.774 355.874181,102.774 Z M397.388924,107.51 C399.090924,107.51 400.052924,106.585 400.052924,104.883 L400.052924,97.039 C400.052924,91.193 396.537924,86.568 389.470924,86.568 L382.366924,86.568 C375.299924,86.568 371.784924,91.193 371.784924,97.039 L371.784924,104.883 C371.784924,106.585 372.746924,107.51 374.448924,107.51 C376.187924,107.51 377.075924,106.585 377.075924,104.883 L377.075924,97.039 C377.075924,93.82 379.036924,91.304 382.884924,91.304 L388.952924,91.304 C392.837924,91.304 394.761924,93.82 394.761924,97.039 L394.761924,104.883 C394.761924,106.585 395.686924,107.51 397.388924,107.51 Z M425.879668,107.51 C430.097668,107.51 432.243668,104.698 432.243668,101.22 C432.243668,97.742 430.097668,94.93 425.879668,94.93 L412.115668,94.93 C410.931668,94.93 410.302668,94.153 410.302668,93.117 C410.302668,92.155 410.931668,91.304 412.115668,91.304 L429.135668,91.304 C430.652668,91.304 431.503668,90.416 431.503668,88.936 C431.503668,87.419 430.652668,86.568 429.135668,86.568 L411.375668,86.568 C407.157668,86.568 405.011668,89.38 405.011668,92.858 C405.011668,96.336 407.157668,99.148 411.375668,99.148 L425.139668,99.148 C426.323668,99.148 426.952668,99.925 426.952668,100.961 C426.952668,101.923 426.323668,102.774 425.139668,102.774 L407.416668,102.774 C405.899668,102.774 405.011668,103.625 405.011668,105.142 C405.011668,106.659 405.899668,107.51 407.416668,107.51 L425.879668,107.51 Z M453.372155,107.51 C455.185155,107.51 456.184155,106.474 456.184155,104.661 L456.184155,84.459 C456.184155,82.646 455.185155,81.61 453.372155,81.61 C451.522155,81.61 450.523155,82.646 450.523155,84.459 L450.523155,104.661 C450.523155,106.474 451.522155,107.51 453.372155,107.51 Z M487.486899,107.51 C489.188899,107.51 490.150899,106.585 490.150899,104.883 L490.150899,97.039 C490.150899,91.193 486.635899,86.568 479.568899,86.568 L472.464899,86.568 C465.397899,86.568 461.882899,91.193 461.882899,97.039 L461.882899,104.883 C461.882899,106.585 462.844899,107.51 464.546899,107.51 C466.285899,107.51 467.173899,106.585 467.173899,104.883 L467.173899,97.039 C467.173899,93.82 469.134899,91.304 472.982899,91.304 L479.050899,91.304 C482.935899,91.304 484.859899,93.82 484.859899,97.039 L484.859899,104.883 C484.859899,106.585 485.784899,107.51 487.486899,107.51 Z M519.344643,107.51 C520.898643,107.51 521.749643,106.659 521.749643,105.142 C521.749643,103.588 520.898643,102.774 519.344643,102.774 L506.061643,102.774 C502.213643,102.774 500.289643,100.221 500.289643,97.039 C500.289643,93.82 502.213643,91.304 506.061643,91.304 L519.344643,91.304 C520.898643,91.304 521.749643,90.453 521.749643,88.936 C521.749643,87.419 520.898643,86.568 519.344643,86.568 L505.580643,86.568 C498.513643,86.568 494.998643,91.193 494.998643,97.039 C494.998643,102.848 498.513643,107.51 505.580643,107.51 L519.344643,107.51 Z" id="CommunicationsInc" fill="#466FF4"></path>
                </g>
            </g>
            <rect id="Rectangle" fill="#1A1A1A" x="1" y="244" width="522" height="11"></rect>
        </g>
    </g>
</svg>